<?xml version="1.0" encoding="UTF-8"?>
<svg width="64" height="64" viewBox="0 0 64 64" xmlns="http://www.w3.org/2000/svg">
  <defs>
    <linearGradient id="alteredSkin" x1="0%" y1="0%" x2="100%" y2="100%">
      <stop offset="0%" style="stop-color:#8B9DAF"/>
      <stop offset="50%" style="stop-color:#6B7B8D"/>
      <stop offset="100%" style="stop-color:#4A5568"/>
    </linearGradient>
    <radialGradient id="alteredEye" cx="0.5" cy="0.5" r="0.4">
      <stop offset="0%" style="stop-color:#7DF9FF"/>
      <stop offset="60%" style="stop-color:#00CED1"/>
      <stop offset="100%" style="stop-color:#008B8B"/>
    </radialGradient>
    <linearGradient id="alteredRing" x1="0%" y1="0%" x2="100%" y2="100%">
      <stop offset="0%" style="stop-color:#5F9EA0"/>
      <stop offset="100%" style="stop-color:#2F4F4F"/>
    </linearGradient>
  </defs>

  <circle cx="32" cy="32" r="28" fill="#0d1117" stroke="url(#alteredRing)" stroke-width="2.5"/>

  <circle cx="32" cy="26" r="8" fill="url(#alteredSkin)" stroke="#5F9EA0" stroke-width="1.5"/>
  <line x1="26" y1="22" x2="28" y2="28" stroke="#4A5568" stroke-width="0.8" opacity="0.6"/>
  <line x1="38" y1="22" x2="36" y2="28" stroke="#4A5568" stroke-width="0.8" opacity="0.6"/>
  <line x1="30" y1="20" x2="34" y2="30" stroke="#4A5568" stroke-width="0.5" opacity="0.4"/>

  <circle cx="29" cy="25" r="1.8" fill="url(#alteredEye)"/>
  <circle cx="35" cy="25" r="1.8" fill="url(#alteredEye)"/>
  <circle cx="29" cy="25" r="0.8" fill="#FFFFFF" opacity="0.8"/>
  <circle cx="35" cy="25" r="0.8" fill="#FFFFFF" opacity="0.8"/>

  <path d="M 22 38 Q 22 32 26 30 L 24 46 Z" fill="url(#alteredSkin)" opacity="0.9"/>
  <path d="M 42 38 Q 42 32 38 30 L 40 46 Z" fill="url(#alteredSkin)" opacity="0.9"/>
  <path d="M 26 30 L 24 46 L 40 46 L 38 30 Q 32 34 26 30" fill="#6B7B8D" opacity="0.7"/>

  <g fill="none" stroke="#00CED1" stroke-width="0.8" opacity="0.5">
    <path d="M 28 36 L 26 42 L 30 40 L 28 46"/>
    <path d="M 36 36 L 38 42 L 34 40 L 36 46"/>
    <path d="M 30 34 L 32 38 L 34 34"/>
  </g>

  <g fill="#00CED1" opacity="0.4">
    <polygon points="18,18 20,16 22,18 20,20"/>
    <polygon points="42,18 44,16 46,18 44,20"/>
    <polygon points="14,40 16,38 18,40 16,42"/>
    <polygon points="46,40 48,38 50,40 48,42"/>
  </g>

  <path d="M 28 50 L 32 54 L 36 50" fill="none" stroke="#00CED1" stroke-width="1.5" opacity="0.6"/>
  <circle cx="32" cy="56" r="1.5" fill="#00CED1" opacity="0.4"/>
</svg>
