<?xml version="1.0" encoding="UTF-8"?>
<svg width="64" height="64" viewBox="0 0 64 64" xmlns="http://www.w3.org/2000/svg">
  <defs>
    <radialGradient id="chanterOrb" cx="0.5" cy="0.5" r="0.5">
      <stop offset="0%" style="stop-color:#E6E6FA"/>
      <stop offset="40%" style="stop-color:#9370DB"/>
      <stop offset="100%" style="stop-color:#4B0082"/>
    </radialGradient>
    <linearGradient id="chanterStaff" x1="0%" y1="0%" x2="100%" y2="100%">
      <stop offset="0%" style="stop-color:#8B7355"/>
      <stop offset="100%" style="stop-color:#5C4033"/>
    </linearGradient>
  </defs>

  <circle cx="32" cy="32" r="28" fill="#120a2e" stroke="#6A0DAD" stroke-width="2.5"/>

  <rect x="30" y="20" width="4" height="36" rx="1.5" fill="url(#chanterStaff)" stroke="#3E2723" stroke-width="0.8"/>

  <circle cx="32" cy="16" r="8" fill="url(#chanterOrb)" stroke="#9370DB" stroke-width="1.5" opacity="0.9"/>
  <circle cx="32" cy="16" r="4" fill="#E6E6FA" opacity="0.4"/>
  <circle cx="32" cy="16" r="1.5" fill="#FFFFFF" opacity="0.7"/>

  <g stroke="#9370DB" stroke-width="0.8" fill="none" opacity="0.5">
    <circle cx="32" cy="16" r="12"/>
    <circle cx="32" cy="16" r="16" stroke-dasharray="3,3"/>
  </g>

  <g fill="none" stroke="#9370DB" stroke-width="1" opacity="0.6">
    <path d="M 32 8 L 32 4"/>
    <path d="M 24 16 L 20 16"/>
    <path d="M 40 16 L 44 16"/>
    <path d="M 26 10 L 23 7"/>
    <path d="M 38 10 L 41 7"/>
  </g>

  <g fill="#9370DB" opacity="0.4">
    <polygon points="18,28 20,26 22,28 20,30"/>
    <polygon points="42,28 44,26 46,28 44,30"/>
    <polygon points="20,42 22,40 24,42 22,44"/>
    <polygon points="40,42 42,40 44,42 42,44"/>
  </g>

  <g fill="#FFD700" opacity="0.3">
    <circle cx="14" cy="20" r="1"/>
    <circle cx="50" cy="20" r="1"/>
    <circle cx="16" cy="36" r="1"/>
    <circle cx="48" cy="36" r="1"/>
  </g>

  <path d="M 26 28 Q 32 32 38 28" fill="none" stroke="#9370DB" stroke-width="1" opacity="0.4"/>
</svg>
