<?xml version="1.0" encoding="UTF-8"?>
<svg width="64" height="64" viewBox="0 0 64 64" xmlns="http://www.w3.org/2000/svg">
  <defs>
    <radialGradient id="remnantGlow" cx="0.5" cy="0.4" r="0.5">
      <stop offset="0%" style="stop-color:#F0E6D3"/>
      <stop offset="60%" style="stop-color:#C4A265"/>
      <stop offset="100%" style="stop-color:#8B6914"/>
    </radialGradient>
    <linearGradient id="remnantRing" x1="0%" y1="0%" x2="100%" y2="100%">
      <stop offset="0%" style="stop-color:#DAA520"/>
      <stop offset="100%" style="stop-color:#B8860B"/>
    </linearGradient>
  </defs>

  <circle cx="32" cy="32" r="28" fill="#1a1a2e" stroke="url(#remnantRing)" stroke-width="2.5"/>

  <circle cx="32" cy="26" r="8" fill="url(#remnantGlow)" stroke="#DAA520" stroke-width="1.5"/>

  <path d="M 22 38 Q 22 32 26 30 L 24 44 Z" fill="#C4A265" opacity="0.9"/>
  <path d="M 42 38 Q 42 32 38 30 L 40 44 Z" fill="#C4A265" opacity="0.9"/>
  <path d="M 26 30 L 24 44 L 40 44 L 38 30 Q 32 34 26 30" fill="#C4A265" opacity="0.7"/>

  <g stroke="#DAA520" stroke-width="1" fill="none" opacity="0.6">
    <circle cx="32" cy="26" r="12"/>
    <line x1="32" y1="10" x2="32" y2="14"/>
    <line x1="32" y1="38" x2="32" y2="42"/>
    <line x1="18" y1="26" x2="22" y2="26"/>
    <line x1="42" y1="26" x2="46" y2="26"/>
  </g>

  <g fill="#DAA520" opacity="0.5">
    <circle cx="20" cy="14" r="1"/>
    <circle cx="44" cy="14" r="1"/>
    <circle cx="14" cy="38" r="1"/>
    <circle cx="50" cy="38" r="1"/>
    <circle cx="24" cy="52" r="1"/>
    <circle cx="40" cy="52" r="1"/>
  </g>

  <path d="M 28 48 L 32 52 L 36 48" fill="none" stroke="#DAA520" stroke-width="1.5" opacity="0.7"/>
</svg>
